HIERARCHY
ROOT Hips
{
	OFFSET 0.000000 0.000000 0.000000 
	CHANNELS 6 Xposition Yposition Zposition Zrotation Yrotation Xrotation
	JOINT LeftUpLeg
	{
		OFFSET 1.363060 -1.794630 0.839290 
		CHANNELS 3 Zrotation Yrotation Xrotation
		JOINT LeftLeg
		{
			OFFSET 2.448110 -6.726130 0.000000 
			CHANNELS 3 Zrotation Yrotation Xrotation
			JOINT LeftFoot
			{
				OFFSET 2.562200 -7.039590 0.000000 
				CHANNELS 3 Zrotation Yrotation Xrotation
				JOINT LeftToeBase
				{
					OFFSET 0.157640 -0.433110 2.322550 
					CHANNELS 3 Zrotation Yrotation Xrotation
					End Site
					{
						OFFSET 0.000000 0.000000 0.000000 
					}
				}
			}
		}
	}
	JOINT RightUpLeg
	{
		OFFSET -1.305520 -1.794630 0.839290 
		CHANNELS 3 Zrotation Yrotation Xrotation
		JOINT RightLeg
		{
			OFFSET -2.542530 -6.985550 0.000000 
			CHANNELS 3 Zrotation Yrotation Xrotation
			JOINT RightFoot
			{
				OFFSET -2.568260 -7.056230 0.000000 
				CHANNELS 3 Zrotation Yrotation Xrotation
				JOINT RightToeBase
				{
					OFFSET -0.164730 -0.452590 2.363150 
					CHANNELS 3 Zrotation Yrotation Xrotation
					End Site
					{
						OFFSET 0.000000 0.000000 0.000000 
					}
				}
			}
		}
	}
	JOINT Spine
	{
		OFFSET 0.028270 2.035590 -0.193380 
		CHANNELS 3 Zrotation Yrotation Xrotation
		JOINT Spine1
		{
			OFFSET 0.056720 2.048850 -0.042750 
			CHANNELS 3 Zrotation Yrotation Xrotation
			JOINT Neck1
			{
				OFFSET -0.054170 1.746240 0.172020 
				CHANNELS 3 Zrotation Yrotation Xrotation
				JOINT Head
				{
					OFFSET 0.104070 1.761360 -0.123970 
					CHANNELS 3 Zrotation Yrotation Xrotation
					End Site
					{
						OFFSET 0.000000 0.000000 0.000000 
					}
				}
			}
			JOINT LeftArm
			{
				OFFSET 3.362410 1.200890 -0.311210 
				CHANNELS 3 Zrotation Yrotation Xrotation
				JOINT LeftForeArm
				{
					OFFSET 4.983000 -0.000000 -0.000000 
					CHANNELS 3 Zrotation Yrotation Xrotation
					JOINT LeftHand
					{
						OFFSET 3.483560 -0.000000 -0.000000 
						CHANNELS 3 Zrotation Yrotation Xrotation
						JOINT LeftHandIndex1
						{
							OFFSET 0.715260 -0.000000 -0.000000 
							CHANNELS 3 Zrotation Yrotation Xrotation
							End Site
							{
								OFFSET 0.000000 0.000000 0.000000 
							}
						}
					}
				}
			}
			JOINT RightArm
			{
				OFFSET -3.136600 1.374050 -0.404650 
				CHANNELS 3 Zrotation Yrotation Xrotation
				JOINT RightForeArm
				{
					OFFSET -5.241900 -0.000000 -0.000000 
					CHANNELS 3 Zrotation Yrotation Xrotation
					JOINT RightHand
					{
						OFFSET -3.444170 -0.000000 -0.000000 
						CHANNELS 3 Zrotation Yrotation Xrotation
						JOINT RightHandIndex1
						{
							OFFSET -0.622530 -0.000000 -0.000000 
							CHANNELS 3 Zrotation Yrotation Xrotation
							End Site
							{
								OFFSET 0.000000 0.000000 0.000000 
							}
						}
					}
				}
			}
		}
	}
}
MOTION
Frames: 15
Frame Time: 0.041667
-0.587290 18.336421 4.410683 -1.568079 -2.713118 3.628412 -13.806761 -11.008114 -7.313901 1.021831 6.758413 22.327003 -0.344139 5.921981 -15.055814 7.996900 -16.117000 -52.551700 19.436806 -8.386796 -1.428904 -0.026731 0.951160 1.532514 0.071557 1.070776 -2.149549 -0.019700 0.906100 -2.490400 -4.966693 2.486387 18.613419 0.098613 2.020441 -11.930560 7.524085 -7.670614 30.685692 1.088200 -2.644100 9.328500 -92.616826 8.559977 23.124619 24.352952 -33.083567 -6.316495 0.762087 0.005483 8.397649 -7.125000 0.000000 0.000000 94.343802 -14.507749 22.212559 -34.418959 41.717639 -10.707536 0.787512 -3.464066 12.140981 7.125000 0.000000 0.000000 
-0.587583 18.335737 4.411074 -1.482912 -2.689474 3.624505 -13.881337 -10.993045 -7.297733 1.020159 6.756276 22.314629 -0.349323 5.928382 -15.007332 8.018800 -16.133100 -52.630400 19.372683 -8.419764 -1.422491 -0.026531 0.950281 1.532132 0.070896 1.074835 -2.155043 -0.022500 0.968400 -2.661900 -5.191016 2.503601 18.465999 0.189932 2.030529 -11.929394 7.461217 -7.640570 30.645615 1.072200 -2.637100 9.306800 -92.582437 8.606482 23.205345 24.400778 -33.123203 -6.333537 0.759602 0.007993 8.306017 -7.125000 0.000000 0.000000 94.362055 -14.541191 22.205109 -34.414152 41.714461 -10.707929 0.764943 -3.460803 12.186927 7.125000 0.000000 0.000000 
-0.588365 18.333979 4.411367 -1.421720 -2.662379 3.568504 -13.936693 -10.982414 -7.262145 1.022344 6.753305 22.314324 -0.346365 5.899162 -14.964398 8.015600 -16.130700 -52.618800 19.313838 -8.461382 -1.385026 -0.026296 0.952009 1.532544 0.068861 1.091569 -2.177135 -0.030600 1.129900 -3.106200 -5.307433 2.497477 18.570004 0.265288 2.032510 -11.971677 7.313250 -7.570238 30.602134 1.038700 -2.619300 9.295700 -92.567885 8.595803 23.247160 24.427961 -33.151858 -6.344236 0.758220 0.011362 8.239127 -7.125000 0.000000 0.000000 94.338125 -14.547079 22.315895 -34.431993 41.734126 -10.715168 0.727339 -3.451160 12.154663 7.125000 0.000000 0.000000 
-0.590026 18.332904 4.411856 -1.427266 -2.630195 3.496414 -13.919683 -10.854692 -7.268894 1.029607 6.749169 22.316989 -0.328282 5.779868 -14.861342 8.019200 -16.133300 -52.631700 19.307848 -8.509356 -1.330596 -0.026056 0.955301 1.533805 0.064944 1.120458 -2.217864 -0.042100 1.324100 -3.640900 -5.251469 2.492669 18.813861 0.255232 2.032117 -12.025765 7.295617 -7.530974 30.471135 1.037300 -2.604900 9.273400 -92.559775 8.526563 23.261861 24.415268 -33.150613 -6.340694 0.758806 0.014553 8.241779 -7.125000 0.000000 0.000000 94.334769 -14.502347 22.362568 -34.439943 41.748326 -10.710166 0.709177 -3.443593 12.118836 7.125000 0.000000 0.000000 
-0.592175 18.332220 4.412149 -1.404266 -2.601638 3.432012 -13.919550 -10.780133 -7.236241 1.034238 6.748406 22.322035 -0.313306 5.699304 -14.821587 8.008800 -16.125700 -52.594300 19.292124 -8.560659 -1.266521 -0.025719 0.958009 1.535009 0.062315 1.143390 -2.240415 -0.055700 1.523200 -4.189600 -5.346691 2.518912 18.934330 0.275930 2.043411 -12.071384 7.373097 -7.521979 30.304434 1.055300 -2.595100 9.236500 -92.529381 8.484489 23.303312 24.392216 -33.135347 -6.332989 0.760256 0.014615 8.246086 -7.125000 0.000000 0.000000 94.377800 -14.456147 22.315812 -34.422123 41.744254 -10.691553 0.716358 -3.442926 12.133289 7.125000 0.000000 0.000000 
-0.593641 18.331731 4.412540 -1.360629 -2.583516 3.389872 -13.951701 -10.843625 -7.160777 1.035702 6.752311 22.334394 -0.303438 5.677208 -14.875293 7.979900 -16.104500 -52.490300 19.259707 -8.597217 -1.221346 -0.025412 0.958768 1.535310 0.063657 1.137192 -2.226359 -0.068400 1.687200 -4.641900 -5.481735 2.552921 18.909704 0.319078 2.060073 -12.092539 7.427992 -7.527178 30.223404 1.066400 -2.592800 9.212600 -92.502964 8.488357 23.343420 24.389567 -33.131190 -6.330558 0.759425 0.011852 8.311107 -7.125000 0.000000 0.000000 94.402265 -14.457135 22.276919 -34.427425 41.752109 -10.685426 0.786742 -3.454233 12.138863 7.125000 0.000000 0.000000 
-0.593934 18.331634 4.413907 -1.354742 -2.564836 3.334710 -13.967981 -10.884365 -7.096334 1.038352 6.760064 22.359436 -0.306419 5.703588 -14.909343 8.006500 -16.124000 -52.586000 19.243016 -8.637018 -1.163893 -0.024903 0.959473 1.535737 0.066102 1.116861 -2.220250 -0.071800 1.729000 -4.757300 -5.496850 2.563289 18.877679 0.311124 2.062937 -12.110563 7.481534 -7.541257 30.189245 1.078900 -2.595000 9.197200 -92.498041 8.496551 23.317413 24.371446 -33.110907 -6.320058 0.757729 0.007854 8.423691 -7.125000 0.000000 0.000000 94.403662 -14.485343 22.277565 -34.446316 41.766738 -10.693244 0.848471 -3.464295 12.127646 7.125000 0.000000 0.000000 
-0.594325 18.330852 4.415080 -1.346598 -2.536037 3.261791 -13.975622 -10.851338 -7.071509 1.044735 6.772383 22.399322 -0.312686 5.726577 -14.896959 8.052900 -16.158000 -52.753000 19.227391 -8.690304 -1.096566 -0.024316 0.961850 1.536838 0.067032 1.109465 -2.225192 -0.067100 1.671200 -4.597800 -5.575783 2.569883 18.945088 0.305007 2.059877 -12.149092 7.537285 -7.557434 30.160433 1.091300 -2.597500 9.189900 -92.476610 8.487464 23.340795 24.349624 -33.095308 -6.312336 0.759332 0.009667 8.381823 -7.125000 0.000000 0.000000 94.410808 -14.480788 22.323249 -34.421761 41.746403 -10.679638 0.783114 -3.452850 12.131765 7.125000 0.000000 0.000000 
-0.595790 18.329582 4.417034 -1.340414 -2.487487 3.170423 -13.978159 -10.842001 -7.032226 1.054436 6.785547 22.448065 -0.307716 5.696646 -14.875995 8.041700 -16.149900 -52.712900 19.207951 -8.765499 -1.020478 -0.023746 0.964984 1.538116 0.067352 1.107666 -2.236500 -0.067400 1.674700 -4.607500 -5.590054 2.572339 19.100552 0.290506 2.057891 -12.206341 7.541084 -7.568606 30.213097 1.093100 -2.601400 9.209500 -92.469325 8.477491 23.394135 24.343296 -33.100941 -6.314363 0.761624 0.010538 8.325203 -7.125000 0.000000 0.000000 94.415460 -14.454959 22.356471 -34.394187 41.731440 -10.668937 0.720531 -3.442481 12.096221 7.125000 0.000000 0.000000 
-0.597549 18.328507 4.420649 -1.346419 -2.436156 3.050955 -13.981499 -10.840932 -6.941882 1.063547 6.794056 22.489604 -0.302228 5.664439 -14.856965 8.015900 -16.130900 -52.619900 19.181560 -8.854284 -0.909785 -0.023049 0.968024 1.539380 0.068173 1.097942 -2.252814 -0.069100 1.695400 -4.664700 -5.482604 2.557421 19.257306 0.255479 2.052137 -12.280760 7.522658 -7.561787 30.310472 1.094000 -2.598900 9.238200 -92.503154 8.476804 23.354510 24.333375 -33.102234 -6.311932 0.760743 0.005776 8.386315 -7.125000 0.000000 0.000000 94.426459 -14.460935 22.344426 -34.406021 41.756955 -10.686353 0.722891 -3.446126 12.103039 7.125000 0.000000 0.000000 
-0.599210 18.327335 4.423775 -1.329634 -2.387422 2.945124 -14.012261 -10.755796 -6.886886 1.072691 6.799108 22.521351 -0.294695 5.606586 -14.793121 8.023400 -16.136500 -52.647100 19.133413 -8.935099 -0.817606 -0.022458 0.970232 1.539973 0.071744 1.069495 -2.243086 -0.070900 1.718100 -4.727300 -5.365296 2.537724 19.391939 0.232440 2.048264 -12.360237 7.566720 -7.554085 30.337140 1.114100 -2.592800 9.250500 -92.543766 8.460003 23.319627 24.332113 -33.112882 -6.310594 0.757744 0.004588 8.432247 -7.125000 0.000000 0.000000 94.448121 -14.480675 22.292922 -34.438815 41.791542 -10.706779 0.681588 -3.435805 12.254892 7.125000 0.000000 0.000000 
-0.600773 18.325576 4.426804 -1.298857 -2.329939 2.853583 -14.060731 -10.705337 -6.833051 1.079859 6.800710 22.544427 -0.288901 5.561091 -14.742969 8.051700 -16.157200 -52.748800 19.070344 -9.019353 -0.741818 -0.022296 0.972407 1.540334 0.073471 1.061157 -2.230733 -0.077400 1.794600 -4.938200 -5.249839 2.517603 19.562727 0.224010 2.047627 -12.428510 7.660616 -7.560228 30.339831 1.145200 -2.587800 9.262500 -92.564679 8.433348 23.351593 24.336698 -33.130077 -6.314773 0.757203 0.006676 8.414574 -7.125000 0.000000 0.000000 94.475552 -14.488431 22.223423 -34.490146 41.831651 -10.723823 0.596793 -3.408406 12.414462 7.125000 0.000000 0.000000 
-0.602825 18.323818 4.432276 -1.295025 -2.275660 2.739314 -14.087520 -10.745263 -6.700706 1.081650 6.796821 22.554411 -0.298222 5.607135 -14.762467 8.098600 -16.191300 -52.917000 19.025187 -9.109399 -0.629772 -0.022640 0.975829 1.541541 0.068776 1.109310 -2.242714 -0.081900 1.845600 -5.079000 -5.142331 2.505310 19.792088 0.213408 2.048613 -12.479509 7.681537 -7.572031 30.370908 1.151400 -2.589900 9.281500 -92.568670 8.418867 23.393496 24.341950 -33.147017 -6.322288 0.759404 0.007182 8.393560 -7.125000 0.000000 0.000000 94.509427 -14.492979 22.171021 -34.509712 41.850326 -10.723845 0.559389 -3.394349 12.490674 7.125000 0.000000 0.000000 
-0.604290 18.322352 4.438235 -1.330425 -2.227415 2.648897 -14.076913 -10.814809 -6.558718 1.080928 6.795217 22.561703 -0.314782 5.692495 -14.801198 8.137600 -16.219500 -53.056600 19.024907 -9.191209 -0.525523 -0.023090 0.977729 1.542567 0.065725 1.146500 -2.231758 -0.084300 1.872400 -5.153200 -5.009576 2.494130 19.854445 0.177040 2.045399 -12.507520 7.561255 -7.561402 30.422557 1.121700 -2.597000 9.289700 -92.573503 8.445942 23.420581 24.363688 -33.173000 -6.335146 0.760484 0.007503 8.356203 -7.125000 0.000000 0.000000 94.526309 -14.528262 22.144866 -34.498310 41.840419 -10.714126 0.570624 -3.397460 12.546323 7.125000 0.000000 0.000000 
-0.605853 18.320593 4.444098 -1.359957 -2.169979 2.619688 -14.060565 -10.911954 -6.469556 1.081715 6.800121 22.575782 -0.317524 5.715908 -14.830558 8.124300 -16.209900 -53.009000 19.036062 -9.272222 -0.466404 -0.023367 0.976702 1.542575 0.065570 1.154435 -2.205904 -0.085700 1.888000 -5.196100 -4.889775 2.471663 19.679751 0.155879 2.037307 -12.502180 7.398849 -7.520721 30.496689 1.085000 -2.594700 9.289600 -92.590289 8.503273 23.388150 24.372706 -33.173233 -6.338385 0.759800 0.005316 8.330557 -7.125000 0.000000 0.000000 94.522862 -14.605721 22.145464 -34.514757 41.844297 -10.724955 0.576368 -3.399426 12.550292 7.125000 0.000000 0.000000 
